Coordinates
version=1
nRows=7
nColumns=42
inDegrees=yes

Units are S.I. units (second, meters, Newtons, ...)
If the header above contains a line with 'inDegrees', this indicates whether rotational values are in degrees (yes) or radians (no).

endheader
time	pelvis_tilt	pelvis_list	pelvis_rotation	pelvis_tx	pelvis_ty	pelvis_tz	hip_flexion_r	hip_adduction_r	hip_rotation_r	knee_angle_r	knee_adduction_r	knee_angle_r_beta	ankle_angle_r	subtalar_angle_r	mtp_angle_r	hip_flexion_l	hip_adduction_l	hip_rotation_l	knee_angle_l	knee_adduction_l	knee_angle_l_beta	ankle_angle_l	subtalar_angle_l	mtp_angle_l	lumbar_extension	lumbar_bending	lumbar_rotation	arm_flex_r	arm_add_r	arm_rot_r	elbow_flex_r	pro_sup_r	wrist_flex_r	wrist_dev_r	arm_flex_l	arm_add_l	arm_rot_l	elbow_flex_l	pro_sup_l	wrist_flex_l	wrist_dev_l
      1.65000000	     16.06273402	      4.44546893	      6.99388249	     -0.40968501	      0.88499054	     -0.03672818	     13.12258927	     -6.60810833	    -26.07186783	     38.92093768	     -5.02616658	      0.67929851	     14.47050983	      2.65497831	     -7.56827171	    -22.24042768	     -1.89461066	    -23.45092068	     45.50957779	    -12.22127086	      0.79429197	      7.16755582	     16.76030787	     -7.56827171	    -37.83085330	     -0.85853198	     -6.28789155	     -4.04334922	     -6.16371728	    -41.94592190	     24.16870138	     90.00000001	      0.00000000	      0.00000000	     11.55618154	     -6.89476129	    -29.54548717	     38.11392296	     90.00000001	      0.00000000	      0.00000000
      1.66000000	     16.22343245	      4.17615460	      6.72384967	     -0.40014488	      0.88606650	     -0.03496341	     12.37010160	     -6.03652868	    -26.36820822	     38.96850275	     -5.28832182	      0.68012868	     15.38161903	      3.13224708	     -7.56690030	    -21.56528066	     -2.05209627	    -23.19832484	     47.44578995	    -12.70332379	      0.82808525	      5.86571010	     14.39479665	     -7.56690030	    -37.95411152	     -0.68428110	     -5.92484431	     -3.62239392	     -6.39317561	    -41.56739757	     24.49805791	     90.00000001	      0.00000000	      0.00000000	     11.03233278	     -6.68095042	    -29.80285102	     37.94700694	     90.00000001	      0.00000000	      0.00000000
      1.67000000	     16.40233129	      4.03085526	      6.45756857	     -0.39079485	      0.88729937	     -0.03317609	     11.54987711	     -5.64041431	    -27.12090593	     38.89007240	     -5.77292190	      0.67875981	     16.23428481	      4.21947472	     -7.56441846	    -20.89466679	     -2.00483248	    -22.21509060	     49.41586364	    -12.62858064	      0.86246952	      4.92368790	     10.39124796	     -7.56441846	    -38.14064613	     -0.64939999	     -5.58705536	     -3.25325990	     -6.61252320	    -40.73555166	     24.86249577	     90.00000001	      0.00000000	      0.00000000	     10.62806784	     -6.48589732	    -30.18760793	     37.70036740	     90.00000001	      0.00000000	      0.00000000
      1.68000000	     16.70868773	      4.11162191	      6.26870224	     -0.38166541	      0.88887055	     -0.03182583	     10.53985106	     -5.65472721	    -28.15850985	     38.86591539	     -6.19748751	      0.67833819	     17.16827623	      5.91616851	     -7.56044236	    -20.35800103	     -1.55626274	    -20.75748863	     51.18497966	    -12.44981030	      0.89334642	      4.16884592	      5.97739559	     -7.56044236	    -38.50668929	     -0.73661402	     -5.47467829	     -2.87866254	     -6.84355928	    -39.51186788	     25.35039612	     90.00000001	      0.00000000	      0.00000000	     10.25549811	     -6.30386349	    -30.60381701	     37.45967170	     90.00000001	      0.00000000	      0.00000000
      1.69000000	     16.88517082	      3.89179560	      6.02404556	     -0.37264077	      0.89004412	     -0.03016442	      9.66119477	     -5.19157116	    -28.59140879	     38.68972697	     -6.41724864	      0.67526312	     18.02499554	      6.43916417	     -7.55904266	    -19.43706999	     -1.63919560	    -20.70279216	     53.09737583	    -12.91419558	      0.92672403	      4.18306644	      3.58147202	     -7.55904266	    -38.70118266	     -0.60798545	     -5.14012978	     -2.36420478	     -7.05728194	    -39.00153787	     25.78656084	     90.00000001	      0.00000000	      0.00000000	      9.81776699	     -6.13186802	    -30.71907063	     37.25494512	     90.00000001	      0.00000000	      0.00000000
      1.70000000	     17.17215728	      3.96294945	      5.84204245	     -0.36393208	      0.89166489	     -0.02862064	      8.63666563	     -5.12914434	    -29.57112303	     38.47297940	     -6.87994079	      0.67148016	     18.72620299	      8.08311903	     -7.55581265	    -18.69483016	     -1.26002403	    -19.01601302	     54.90899493	    -12.25209403	      0.95834275	      3.67280411	     -1.44320423	     -7.55581265	    -39.08511535	     -0.73408745	     -4.97932590	     -1.96712058	     -7.27028127	    -37.49833941	     26.35972893	     90.00000001	      0.00000000	      0.00000000	      9.54539186	     -5.99156454	    -31.08438564	     36.98018312	     90.00000001	      0.00000000	      0.00000000
      1.71000000	     17.41985011	      3.83407289	      5.60228793	     -0.35527782	      0.89305357	     -0.02700129	      7.64190097	     -4.76246717	    -29.77186292	     38.21960043	     -6.96215788	      0.66705787	     19.48610739	      8.56210648	     -7.55437885	    -17.75812967	     -1.21484564	    -18.81477324	     56.58245895	    -12.48707183	      0.98755021	      4.27731598	     -3.97455181	     -7.55437885	    -39.39617793	     -0.70219270	     -4.66474432	     -1.41071313	     -7.47415690	    -36.81402812	     26.86382565	     90.00000001	      0.00000000	      0.00000000	      9.19299090	     -5.84525582	    -31.16370282	     36.77879915	     90.00000001	      0.00000000	      0.00000000
